<svg width="34" height="34" viewBox="0 0 34 34" fill="none" xmlns="http://www.w3.org/2000/svg">
<g id="File / Note">
<g id="Vector">
<path d="M27.0059 21.1615L21.1614 27.0059C20.6714 27.4959 20.4264 27.7403 20.1405 27.9155C19.8869 28.0708 19.6108 28.1858 19.3217 28.2552C19.0773 28.3139 18.8213 28.3285 18.4167 28.3321C18.2822 28.3334 18.1314 28.3334 17.9591 28.3334H10.1956C8.6119 28.3334 7.81886 28.3334 7.21337 28.0248C6.68024 27.7532 6.24711 27.3193 5.97547 26.7862C5.66666 26.1801 5.66666 25.3871 5.66666 23.8003V10.2003C5.66666 8.61348 5.66666 7.81948 5.97547 7.2134C6.24711 6.68027 6.68024 6.24714 7.21337 5.9755C7.81945 5.66669 8.61345 5.66669 10.2003 5.66669H23.8003C25.3871 5.66669 26.1794 5.66669 26.7855 5.9755C27.3186 6.24714 27.7532 6.68027 28.0248 7.2134C28.3333 7.81889 28.3333 8.61193 28.3333 10.1956V17.9559C28.3333 18.1295 28.3333 18.2814 28.332 18.4167C28.3282 18.8211 28.3131 19.0767 28.2545 19.321C28.1851 19.6101 28.0701 19.887 27.9148 20.1405C27.7396 20.4264 27.4959 20.6714 27.0059 21.1615Z" fill="#A81D28" fill-opacity="0.3"/>
<path d="M18.4167 28.3321C18.2822 28.3334 18.1314 28.3334 17.9591 28.3334H10.1956C8.6119 28.3334 7.81886 28.3334 7.21337 28.0248C6.68024 27.7532 6.24711 27.3193 5.97547 26.7862C5.66666 26.1801 5.66666 25.3871 5.66666 23.8003V10.2003C5.66666 8.61348 5.66666 7.81948 5.97547 7.2134C6.24711 6.68027 6.68024 6.24714 7.21337 5.9755C7.81945 5.66669 8.61345 5.66669 10.2003 5.66669H23.8003C25.3871 5.66669 26.1794 5.66669 26.7855 5.9755C27.3186 6.24714 27.7532 6.68027 28.0248 7.2134C28.3333 7.81889 28.3333 8.61193 28.3333 10.1956V17.9559C28.3333 18.1295 28.3333 18.2814 28.332 18.4167M18.4167 28.3321C18.8213 28.3285 19.0773 28.3139 19.3217 28.2552C19.6108 28.1858 19.8869 28.0708 20.1405 27.9155C20.4264 27.7403 20.6714 27.4959 21.1614 27.0059L27.0059 21.1615C27.4959 20.6714 27.7396 20.4264 27.9148 20.1405C28.0701 19.887 28.1851 19.6101 28.2545 19.321C28.3131 19.0767 28.3282 18.8211 28.332 18.4167M18.4167 28.3321V20.6835C18.4167 19.8901 18.4167 19.4931 18.5711 19.19C18.7069 18.9235 18.9234 18.7069 19.19 18.5711C19.4931 18.4167 19.8894 18.4167 20.6828 18.4167H28.332" stroke="#A81D28" stroke-width="2" stroke-linecap="round" stroke-linejoin="round"/>
</g>
</g>
</svg>
