<svg width="34" height="34" viewBox="0 0 34 34" fill="none" xmlns="http://www.w3.org/2000/svg">
<g id="File / File_Blank">
<g id="Vector">
<path d="M21.1615 5.57812L25.5892 10.0059C26.0793 10.4959 26.3229 10.7403 26.4981 11.0262C26.6535 11.2797 26.7684 11.5561 26.8378 11.8452C26.8965 12.0895 26.9115 12.3456 26.9154 12.75C26.9166 12.8854 26.9167 13.0375 26.9167 13.2114V25.2217C26.9167 26.8054 26.9167 27.5973 26.6082 28.2028C26.3365 28.736 25.9019 29.1698 25.3688 29.4415C24.7633 29.75 23.9714 29.75 22.3877 29.75L11.6123 29.75C10.0286 29.75 9.23555 29.75 8.63006 29.4415C8.09693 29.1698 7.6638 28.736 7.39216 28.2028C7.08334 27.5968 7.08334 26.8038 7.08334 25.2169V8.78361C7.08334 7.19679 7.08334 6.4028 7.39216 5.79671C7.6638 5.26359 8.09693 4.83046 8.63006 4.55882C9.23614 4.25 10.0301 4.25 11.617 4.25H17.9559C18.1295 4.25 18.2814 4.25 18.4167 4.25123C18.8213 4.25491 19.0773 4.26961 19.3217 4.32829C19.6108 4.39769 19.887 4.51246 20.1405 4.66781C20.4263 4.84297 20.6718 5.08841 21.1615 5.57812Z" fill="#A81D28" fill-opacity="0.3"/>
<path d="M18.4167 4.25123C18.2814 4.25 18.1295 4.25 17.9559 4.25H11.617C10.0301 4.25 9.23614 4.25 8.63006 4.55882C8.09693 4.83046 7.6638 5.26359 7.39216 5.79671C7.08334 6.4028 7.08334 7.19679 7.08334 8.78361V25.2169C7.08334 26.8038 7.08334 27.5968 7.39216 28.2028C7.6638 28.736 8.09693 29.1698 8.63006 29.4415C9.23555 29.75 10.0286 29.75 11.6123 29.75L22.3877 29.75C23.9714 29.75 24.7633 29.75 25.3688 29.4415C25.9019 29.1698 26.3365 28.736 26.6082 28.2028C26.9167 27.5973 26.9167 26.8054 26.9167 25.2217V13.2114C26.9167 13.0375 26.9166 12.8854 26.9154 12.75M18.4167 4.25123C18.8213 4.25491 19.0773 4.26961 19.3217 4.32829C19.6108 4.39769 19.887 4.51246 20.1405 4.66781C20.4263 4.84297 20.6718 5.08841 21.1615 5.57812L25.5892 10.0059C26.0793 10.4959 26.3229 10.7403 26.4981 11.0262C26.6535 11.2797 26.7684 11.5561 26.8378 11.8452C26.8965 12.0895 26.9115 12.3456 26.9154 12.75M18.4167 4.25123V8.21667C18.4167 9.80348 18.4167 10.5963 18.7255 11.2024C18.9971 11.7355 19.4303 12.1698 19.9634 12.4415C20.5689 12.75 21.3619 12.75 22.9456 12.75H26.9154M26.9154 12.75H26.917" stroke="#A81D28" stroke-width="2" stroke-linecap="round" stroke-linejoin="round"/>
</g>
<path id="Vector_2" d="M12 20.7333L15.1816 24L22 17" stroke="#A81D28" stroke-width="2" stroke-linecap="round" stroke-linejoin="round"/>
</g>
</svg>
