<svg width="34" height="34" viewBox="0 0 34 34" fill="none" xmlns="http://www.w3.org/2000/svg">
<g id="Interface / Book_Open">
<g id="Vector">
<path d="M17.8146 27.111L17 28.333L16.1762 27.0976C15.4441 25.9995 15.077 25.4488 14.5914 25.0497C14.1598 24.6949 13.661 24.4291 13.1264 24.2667C12.5225 24.0833 11.8574 24.0833 10.5269 24.0833H6.51379C5.72193 24.0833 5.3261 24.0833 5.02336 23.9291C4.75679 23.7932 4.54023 23.576 4.40441 23.3094C4.25 23.0063 4.25 22.6102 4.25 21.8168V9.35012C4.25 8.55671 4.25 8.15971 4.40441 7.85667C4.54023 7.59011 4.75679 7.37354 5.02336 7.23772C5.3264 7.08331 5.72271 7.08331 6.51611 7.08331H10.1994C12.5797 7.08331 13.7701 7.08331 14.6792 7.54654C15.4789 7.954 16.1291 8.60438 16.5365 9.40407C16.9998 10.3132 17 11.5028 17 13.883C17 11.5028 17 10.3132 17.4632 9.40407C17.8707 8.60438 18.5204 7.954 19.3201 7.54654C20.2292 7.08331 21.4195 7.08331 23.7997 7.08331H27.4831C28.2765 7.08331 28.6734 7.08331 28.9765 7.23772C29.2431 7.37354 29.4592 7.59011 29.5951 7.85667C29.7495 8.15971 29.75 8.55671 29.75 9.35012V21.8168C29.75 22.6102 29.7495 23.0063 29.5951 23.3094C29.4592 23.576 29.2435 23.7932 28.977 23.9291C28.6742 24.0833 28.2781 24.0833 27.4862 24.0833H23.4732C22.1427 24.0833 21.4762 24.0833 20.8723 24.2667C20.3377 24.4291 19.8414 24.6949 19.4097 25.0497C18.9222 25.4504 18.5527 26.0039 17.8146 27.111Z" fill="#A81D28" fill-opacity="0.3"/>
<path d="M17 13.883V28.333M17 13.883C17 11.5028 17 10.3132 17.4632 9.40407C17.8707 8.60438 18.5204 7.954 19.3201 7.54654C20.2292 7.08331 21.4195 7.08331 23.7997 7.08331H27.4831C28.2765 7.08331 28.6734 7.08331 28.9765 7.23772C29.2431 7.37354 29.4592 7.59011 29.5951 7.85667C29.7495 8.15971 29.75 8.55671 29.75 9.35012V21.8168C29.75 22.6102 29.7495 23.0063 29.5951 23.3094C29.4592 23.576 29.2435 23.7932 28.977 23.9291C28.6742 24.0833 28.2781 24.0833 27.4862 24.0833H23.4732C22.1427 24.0833 21.4762 24.0833 20.8723 24.2667C20.3377 24.4291 19.8414 24.6949 19.4097 25.0497C18.9222 25.4504 18.5527 26.0039 17.8146 27.111L17 28.333M17 13.883C17 11.5028 16.9998 10.3132 16.5365 9.40407C16.1291 8.60438 15.4789 7.954 14.6792 7.54654C13.7701 7.08331 12.5797 7.08331 10.1994 7.08331H6.51611C5.72271 7.08331 5.3264 7.08331 5.02336 7.23772C4.75679 7.37354 4.54023 7.59011 4.40441 7.85667C4.25 8.15971 4.25 8.55671 4.25 9.35012V21.8168C4.25 22.6102 4.25 23.0063 4.40441 23.3094C4.54023 23.576 4.75679 23.7932 5.02336 23.9291C5.3261 24.0833 5.72193 24.0833 6.51379 24.0833H10.5269C11.8574 24.0833 12.5225 24.0833 13.1264 24.2667C13.661 24.4291 14.1598 24.6949 14.5914 25.0497C15.077 25.4488 15.4441 25.9995 16.1762 27.0976L17 28.333" stroke="#A81D28" stroke-width="2" stroke-linecap="round" stroke-linejoin="round"/>
</g>
</g>
</svg>
