<svg width="110" height="74" viewBox="0 0 110 74" fill="none" xmlns="http://www.w3.org/2000/svg">
<g id="Group 40">
<g id="Vector">
<path d="M105.516 68.4119V67.875C105.516 67.4673 105.602 67.0928 105.774 66.7514C105.95 66.4067 106.203 66.1316 106.535 65.9261C106.87 65.7173 107.277 65.6129 107.758 65.6129C108.245 65.6129 108.654 65.7157 108.986 65.9212C109.321 66.1267 109.572 66.4018 109.741 66.7465C109.914 67.0878 110 67.464 110 67.875V68.4119C110 68.8196 109.914 69.1958 109.741 69.5405C109.569 69.8819 109.316 70.1553 108.981 70.3608C108.646 70.5696 108.238 70.674 107.758 70.674C107.271 70.674 106.861 70.5696 106.53 70.3608C106.198 70.1553 105.946 69.8819 105.774 69.5405C105.602 69.1958 105.516 68.8196 105.516 68.4119ZM106.962 67.875V68.4119C106.962 68.6473 107.019 68.8693 107.131 69.0781C107.247 69.2869 107.456 69.3913 107.758 69.3913C108.059 69.3913 108.265 69.2886 108.374 69.0831C108.487 68.8776 108.543 68.6539 108.543 68.4119V67.875C108.543 67.633 108.49 67.4077 108.384 67.1989C108.278 66.9901 108.069 66.8857 107.758 66.8857C107.46 66.8857 107.252 66.9901 107.136 67.1989C107.02 67.4077 106.962 67.633 106.962 67.875ZM100.29 62.5852V62.0483C100.29 61.6373 100.378 61.2611 100.554 60.9197C100.73 60.575 100.983 60.2999 101.315 60.0945C101.649 59.889 102.054 59.7862 102.528 59.7862C103.018 59.7862 103.429 59.889 103.761 60.0945C104.092 60.2999 104.344 60.575 104.516 60.9197C104.689 61.2611 104.775 61.6373 104.775 62.0483V62.5852C104.775 62.9962 104.687 63.3724 104.511 63.7138C104.339 64.0552 104.085 64.3286 103.751 64.5341C103.419 64.7363 103.012 64.8374 102.528 64.8374C102.044 64.8374 101.634 64.7346 101.3 64.5291C100.968 64.3203 100.716 64.0469 100.544 63.7088C100.375 63.3674 100.29 62.9929 100.29 62.5852ZM101.747 62.0483V62.5852C101.747 62.8272 101.804 63.0509 101.916 63.2564C102.032 63.4619 102.236 63.5646 102.528 63.5646C102.833 63.5646 103.04 63.4619 103.149 63.2564C103.262 63.0509 103.318 62.8272 103.318 62.5852V62.0483C103.318 61.8063 103.265 61.581 103.159 61.3722C103.053 61.1633 102.843 61.0589 102.528 61.0589C102.233 61.0589 102.029 61.165 101.916 61.3771C101.804 61.5893 101.747 61.813 101.747 62.0483ZM100.947 70.321L107.947 60.1392H109.249L102.249 70.321H100.947Z" fill="black"/>
<path d="M0.117188 62.8648V52.5158L22.6489 17.0717H31.8604V31.1206H26.5161L13.3301 51.9795V52.4085H45.9595V62.8648H0.117188ZM26.6773 71.9805V59.7011L26.9458 55.17V17.0717H39.3799V71.9805H26.6773Z" fill="black"/>
<path d="M73.8601 73.321C69.0619 73.321 64.9262 72.186 61.4529 69.916C57.9795 67.6282 55.3029 64.3483 53.4231 60.0764C51.5432 55.7867 50.6122 50.6301 50.6301 44.6065C50.648 38.583 51.5879 33.4711 53.4499 29.2707C55.3298 25.0524 57.9974 21.8441 61.4529 19.6456C64.9262 17.4292 69.0619 16.321 73.8601 16.321C78.6583 16.321 82.794 17.4292 86.2673 19.6456C89.7585 21.8441 92.4441 25.0524 94.324 29.2707C96.2038 33.4889 97.1348 38.6009 97.1169 44.6065C97.1169 50.6479 96.177 55.8135 94.2971 60.1032C92.4172 64.393 89.7406 67.6729 86.2673 69.9428C82.8119 72.195 78.6762 73.321 73.8601 73.321ZM73.8601 62.4626C76.7247 62.4626 79.0432 61.0059 80.8157 58.0924C82.5881 55.1611 83.4654 50.6658 83.4475 44.6065C83.4475 40.6385 83.0447 37.3676 82.239 34.7937C81.4333 32.202 80.3144 30.2716 78.8821 29.0026C77.4498 27.7335 75.7758 27.099 73.8601 27.099C71.0134 27.099 68.7128 28.5379 66.9582 31.4156C65.2037 34.2754 64.3174 38.6724 64.2995 44.6065C64.2816 48.6282 64.6666 51.9617 65.4543 54.607C66.26 57.2523 67.3879 59.2274 68.8381 60.5322C70.2883 61.8191 71.9623 62.4626 73.8601 62.4626Z" fill="black"/>
<path d="M93.0803 5.23011C93.0803 6.31723 92.8814 7.25189 92.4837 8.03409C92.0859 8.81297 91.5407 9.41288 90.848 9.83381C90.1586 10.2514 89.3748 10.4602 88.4965 10.4602C87.6148 10.4602 86.8277 10.2514 86.1349 9.83381C85.4455 9.41288 84.902 8.81132 84.5043 8.02912C84.1065 7.24692 83.9077 6.31392 83.9077 5.23011C83.9077 4.14299 84.1065 3.20999 84.5043 2.43111C84.902 1.64891 85.4455 1.04901 86.1349 0.631392C86.8277 0.210464 87.6148 0 88.4965 0C89.3748 0 90.1586 0.210464 90.848 0.631392C91.5407 1.04901 92.0859 1.64891 92.4837 2.43111C92.8814 3.20999 93.0803 4.14299 93.0803 5.23011ZM91.559 5.23011C91.559 4.40152 91.4247 3.70384 91.1562 3.13707C90.8911 2.567 90.5265 2.13613 90.0625 1.84446C89.6018 1.54948 89.0798 1.40199 88.4965 1.40199C87.9098 1.40199 87.3861 1.54948 86.9254 1.84446C86.4647 2.13613 86.1001 2.567 85.8317 3.13707C85.5665 3.70384 85.434 4.40152 85.434 5.23011C85.434 6.05871 85.5665 6.75805 85.8317 7.32812C86.1001 7.89489 86.4647 8.32576 86.9254 8.62074C87.3861 8.91241 87.9098 9.05824 88.4965 9.05824C89.0798 9.05824 89.6018 8.91241 90.0625 8.62074C90.5265 8.32576 90.8911 7.89489 91.1562 7.32812C91.4247 6.75805 91.559 6.05871 91.559 5.23011Z" fill="black"/>
<path d="M94.9956 10.321V0.139205H101.309V1.46165H96.5318V4.56392H100.857V5.88139H96.5318V10.321H94.9956Z" fill="black"/>
<path d="M103.199 10.321V0.139205H109.513V1.46165H104.735V4.56392H109.06V5.88139H104.735V10.321H103.199Z" fill="black"/>
</g>
</g>
</svg>
