<svg xmlns="http://www.w3.org/2000/svg" width="138" height="138" viewBox="0 0 138 138" fill="none">
  <path d="M82.9353 25.6209L75.9148 19.6381C71.7873 16.1206 65.7128 16.1206 61.5853 19.6381L54.5639 25.6211C52.7952 27.1284 50.5959 28.0389 48.2794 28.2238L39.0918 28.9565C33.686 29.3879 29.3865 33.6807 28.9551 39.0864L28.2195 48.2814C28.0347 50.5979 27.1301 52.7961 25.6228 54.5648L19.6372 61.5867C16.1198 65.7141 16.1215 71.7836 19.6389 75.9111L25.6191 82.933C27.1264 84.7017 28.0397 86.8999 28.2246 89.2164L28.9602 98.4114C29.3916 103.817 33.6787 108.11 39.0844 108.541L48.2822 109.274C50.5987 109.459 52.7969 110.369 54.5656 111.877L61.5847 117.86C65.7122 121.377 71.7873 121.377 75.9148 117.859L82.9338 111.876C84.7025 110.369 86.9008 109.46 89.2173 109.275L98.415 108.541C103.821 108.11 108.108 103.816 108.539 98.4103L109.275 89.2158C109.46 86.8993 110.373 84.6992 111.88 82.9305L117.861 75.9108C121.378 71.7833 121.377 65.7119 117.86 61.5845L111.88 54.5659C110.372 52.7971 109.458 50.5979 109.273 48.2814L108.542 39.0853C108.111 33.6796 103.817 29.3885 98.4112 28.9571L89.2167 28.2243C86.9002 28.0395 84.704 27.1282 82.9353 25.6209Z" fill="white"/>
  <path d="M54 67.2647L65.4545 79L84 60" stroke="black" stroke-width="6" stroke-linecap="round"/>
</svg>