<svg xmlns="http://www.w3.org/2000/svg" width="34" height="35" viewBox="0 0 34 35" fill="none">
  <path d="M6 17.5C6 23.5751 10.9249 28.5 17 28.5C23.0751 28.5 28 23.5751 28 17.5C28 11.4249 23.0751 6.5 17 6.5C10.9249 6.5 6 11.4249 6 17.5Z" fill="#A81D28" fill-opacity="0.5"/>
  <path d="M20.6666 21.1666L17 17.5M17 17.5L13.3333 13.8333M17 17.5L20.6667 13.8333M17 17.5L13.3333 21.1667M17 28.5C10.9249 28.5 6 23.5751 6 17.5C6 11.4249 10.9249 6.5 17 6.5C23.0751 6.5 28 11.4249 28 17.5C28 23.5751 23.0751 28.5 17 28.5Z" stroke="#A81D28" stroke-width="2" stroke-linecap="round" stroke-linejoin="round"/>
</svg>