<svg xmlns="http://www.w3.org/2000/svg" width="116" height="140" viewBox="0 0 116 140" fill="none">
  <path fill-rule="evenodd" clip-rule="evenodd" d="M76.2589 0.409989L85.2409 0.643915L85.4751 0.409989C94.6904 0.819979 105.198 0.585227 115.059 0.643915L116 0.937356C115.412 20.8202 116.529 38.8854 114.649 58.7087C109.073 91.7898 87.8229 123.812 57.063 140C56.2407 139.883 55.7708 139.062 54.9501 138.944C27.7112 122.228 7.69545 94.2531 1.70744 63.6948C0.239805 56.305 0.239806 47.6828 0.00567954 40.4683H0.123157C0.47476 39.2375 -0.111797 37.9472 0.239807 36.8321C-0.405489 32.3752 0.475587 27.8595 0.299371 23.0495L0.417675 0.351302L0.828017 0L76.2589 0.409989Z" fill="black"/>
  <path fill-rule="evenodd" clip-rule="evenodd" d="M4.52605 1.17211C12.8024 1.22997 21.6074 1.46472 30.4123 1.40603C30.9418 1.69865 31.7046 1.22997 32.4673 1.40603L87.588 1.69865C97.2153 1.81685 105.493 1.93423 114.828 1.99209L114.768 28.8547C114.768 39.8228 114.474 51.4356 112.949 62.521C112.479 62.6375 113.007 63.4592 112.537 63.5766C112.243 65.4529 111.834 67.0954 111.245 68.7378C110.897 70.6798 110.366 72.5846 109.66 74.4272C109.72 75.1307 109.308 75.4828 109.132 76.0102C108.721 77.5352 108.133 79.0595 107.547 80.468C105.257 86.5095 102.439 92.7842 98.8004 98.0628C96.2763 102.345 93.8109 106.45 90.6407 110.087C85.7687 116.832 78.4314 123.929 71.6227 129.208H71.329C69.5693 130.908 67.3381 132.199 65.5189 133.43C63.698 134.486 61.82 135.951 59.8246 136.831C59.4126 137.536 58.6498 137.652 57.8862 138.005C57.3584 138.709 56.4194 137.947 55.6566 138.005C52.8976 136.128 50.0798 134.486 47.6732 132.374C46.323 131.905 44.8554 130.614 43.8568 129.735C43.5052 129.735 43.329 129.266 42.9178 129.09C34.8756 122.227 27.597 114.603 21.5511 106.509C21.7852 105.922 21.1399 105.864 20.9041 105.571C19.0262 102.697 16.9132 99.8235 15.5623 96.832C14.5637 95.8343 14.5058 94.4266 13.5072 93.5463C13.2135 92.4908 12.5683 91.9047 12.3929 90.7905C0.76845 71.2019 0.35728 45.5122 1.29627 21.231L1.58996 1.58293C1.76535 0.819153 2.7639 1.29031 3.4092 1.17211C3.70289 1.64161 4.1728 1.11342 4.52605 1.17211Z" fill="#900D35"/>
  <path fill-rule="evenodd" clip-rule="evenodd" d="M25.3641 14.8969C26.8318 13.8992 29.1217 14.4282 30.3536 15.1903C30.8227 15.9524 31.5863 16.1872 32.2316 16.3632C35.3439 12.2567 40.0975 16.8319 44.148 14.2521C45.7919 14.5439 46.5546 15.7763 47.9644 16.3632C49.3145 16.4211 50.7813 16.1863 52.014 16.5972V21.9932C53.13 22.6379 54.1269 22.3445 55.243 22.9313C56.0645 23.6935 56.182 24.9251 56.0057 25.9806C54.9493 27.3296 53.5991 27.3296 52.0727 27.5644C52.0132 32.3148 51.6607 36.7726 52.0727 41.5826C53.8332 41.5826 55.0072 42.2273 55.6541 43.8111C55.947 45.4527 54.8318 46.3322 53.8928 46.9786C53.13 47.0951 51.8973 46.6851 51.7799 47.7407V54.6022C51.31 55.9512 49.3145 55.4247 48.0802 55.8339C47.7286 55.4834 47.1412 55.7165 46.7309 55.6586C46.2618 56.3034 46.203 55.3073 45.6744 55.6586H34.5803C33.2309 56.1281 31.822 58.2392 30.4123 56.7142C29.1796 55.0726 26.4214 55.4247 24.8363 55.5412L11.7467 55.1313C11.0419 54.8386 10.9244 54.1922 10.9831 53.4293V46.6851C9.92668 46.3322 8.51779 46.5082 7.69628 45.7461C6.40403 44.6906 7.46049 43.0481 7.63671 41.8165C8.28366 40.9362 9.98542 41.347 10.9831 41.0544C11.3935 36.304 11.511 32.1991 11.3356 27.1544C9.8092 26.9205 7.98997 26.9205 7.28511 25.3359C7.2272 24.4564 6.9335 23.5761 7.52089 22.814C8.45987 21.6997 9.86794 21.6997 11.3364 21.8758L11.6293 21.465L11.7476 16.8906C12.0413 15.659 13.6835 16.1863 14.682 15.9524C16.5608 16.5972 17.3832 14.5439 18.9087 14.0752C19.9064 13.5479 20.4938 14.6621 21.5503 14.6042C22.7821 15.1903 23.8386 14.7795 25.3641 14.8969ZM79.9578 14.3687C81.073 15.0142 82.5977 15.2482 83.128 16.598C84.067 17.1262 84.0066 15.9532 84.7114 15.6598C87.7634 12.9039 91.6964 17.0088 94.8666 14.6042C97.0978 13.7239 98.7417 16.6558 100.385 16.774C101.441 16.5988 102.91 16.7162 103.967 17.127C104.435 19.0612 103.789 20.9384 104.611 22.5817C106.078 22.5222 107.663 22.4635 107.958 24.1059C108.368 24.6333 108.132 25.2797 108.192 26.1005C107.958 26.2757 107.251 26.1584 107.429 26.7452L107.663 26.9221C106.783 28.0364 104.025 26.8047 104.083 28.8564C104.435 32.7281 103.849 37.3612 104.201 41.5842C105.432 42.3463 107.252 42.0529 107.9 43.6358C108.017 44.6914 108.251 46.2751 107.018 46.8025C106.138 47.3315 104.376 46.8025 103.967 48.0358V55.3082L103.202 55.9529C97.8606 56.5976 91.6376 55.6595 86.0037 55.9529C85.4155 56.7737 84.7694 56.8332 84.1249 57.244C82.6564 57.3606 81.6008 56.5398 80.4864 55.8347C75.6128 55.7768 71.4457 56.0108 66.6903 55.6595C65.9276 56.129 65.0473 55.6016 64.225 55.5421L63.6963 54.6031V47.0959C62.1708 46.862 60.4095 47.0381 59.8816 45.2196C59.6475 44.2219 59.8816 43.5185 60.2341 42.639C61.0548 41.5834 62.4057 41.5239 63.6972 41.5834L63.9329 41.1718V27.7991C62.9344 27.0957 61.7017 27.7991 60.7627 27.037C60.0579 26.3344 59.7658 25.7475 59.5896 24.8094C59.8825 23.9877 60.1745 23.0495 61.1731 22.58C61.9358 21.8758 63.463 22.7553 64.0496 21.8758C63.9329 20.0581 64.1679 18.6504 64.2258 17.008C65.3427 15.7763 67.4556 16.7145 68.5708 16.3632C69.6273 15.4837 71.2124 15.1903 72.2697 14.3678C74.558 16.1285 77.4337 14.6621 79.9578 14.3687Z" fill="black"/>
  <path fill-rule="evenodd" clip-rule="evenodd" d="M82.0111 16.1863C83.4779 18.004 83.0676 20.7615 83.128 23.0487C83.3042 23.1066 83.3621 23.3422 83.5962 23.3422C84.0066 22.814 83.6542 22.2271 83.8899 21.7576C83.5962 19.5878 83.7121 17.1824 85.3567 15.716C87.176 15.1886 89.4064 15.306 91.1685 16.0681C92.6353 15.716 93.8689 15.8921 95.2761 15.5399C95.8064 19.1761 95.2182 23.3413 95.3944 26.7419C95.5127 26.9188 95.7468 26.8014 95.923 26.8014L96.1588 26.508C95.8064 24.5721 96.3913 22.8718 96.0405 20.9946C96.6271 19.3522 95.6881 17.2998 96.4509 15.4226C97.5661 16.0094 98.9766 16.7716 99.5028 17.828C99.5028 28.9134 99.2686 38.7085 98.9162 50.0279H98.5638C97.6248 48.7962 95.6277 47.9746 96.0397 46.2735L96.158 27.447C95.9818 27.1536 95.5119 27.1536 95.2761 27.2709C95.042 34.0738 95.3357 39.9393 95.1015 46.3322C95.042 47.3877 94.103 47.5059 93.164 47.3877C92.0488 47.5059 91.3448 46.5669 90.3462 46.3322H86.8235C85.9433 46.8612 84.9456 47.4481 83.8891 47.2125C83.5954 45.394 84.0653 43.1655 83.4771 41.5826L82.9485 42.1099C82.8318 43.8698 83.1842 45.6883 82.596 47.3886C81.4229 47.682 80.6006 46.4504 79.3696 46.5677C76.9025 45.5701 74.9063 47.5646 72.5592 46.8612L72.383 46.4504C72.2663 36.3618 72.5013 25.9806 72.5592 15.5408C73.6157 15.5408 74.7309 16.3624 75.8461 16.069C76.8446 15.7763 77.9011 15.13 78.8997 15.1895L79.1338 14.896C79.8982 15.5416 81.2484 15.2482 82.0111 16.1863ZM19.3182 15.1308C19.4357 21.231 19.2007 26.451 19.1428 32.5512C19.5523 32.6694 19.2007 32.962 19.1428 33.1381C19.0833 37.5951 19.0245 42.0529 18.9079 46.8628C17.8506 47.6837 17.264 49.1509 16.0893 49.7369C15.7377 38.8275 16.2076 27.6842 16.2671 16.7162C17.2053 15.9524 18.2022 15.0729 19.3182 15.1308ZM31.4688 17.5353C31.5284 19.2373 31.4109 21.2897 31.5871 22.6974L31.822 22.9313C32.8189 21.1715 32.0562 19.4125 32.4673 17.5353C32.8785 16.4211 33.9937 15.7763 35.1081 15.3077C38.0442 14.8969 40.5095 16.6558 43.4448 15.4242C43.9147 17.947 43.3273 20.2342 43.5615 22.6982L43.0924 44.6914C43.3273 45.8643 42.4463 46.5686 41.4485 46.686C38.6895 46.3933 35.4018 44.7501 32.8793 46.862C31.9387 47.1546 31.9991 46.0999 31.9991 45.513C31.9395 43.9284 32.1753 42.5216 31.8229 41.1726C31.5292 41.0552 31.2355 41.3478 31.2942 41.5842L31.1768 46.5694C30.0036 46.6281 28.8289 45.9834 27.597 45.8073C25.8936 45.8073 24.603 46.7455 22.9592 46.6868C22.1368 47.0968 21.0804 46.7455 20.3176 46.5694L19.8485 46.0412C19.6723 35.7774 20.2009 25.3954 20.2009 15.1911C20.905 14.9555 21.7861 15.6598 22.6084 15.8359C25.5983 15.659 29.8845 14.0165 31.4688 17.5353ZM47.2595 16.8906C47.0246 27.7404 47.2595 38.5911 47.0245 49.9692C47.0245 50.1461 46.6729 50.0287 46.4967 50.0287C45.4982 48.7376 44.4417 47.5068 43.8543 46.0396C44.2076 35.1889 43.9726 25.7467 44.5004 15.1895C45.6165 15.3077 46.3801 16.4219 47.2595 16.8906ZM71.7377 15.5416C72.2076 21.465 71.3274 27.7991 71.6211 33.8994L71.4448 47.3886C70.3296 48.1515 69.6256 49.4418 68.4508 50.2626L68.2746 49.8535L68.4508 25.3367L68.685 17.0088C69.6843 16.5393 70.6829 15.835 71.7377 15.5416Z" fill="white"/>
  <path fill-rule="evenodd" clip-rule="evenodd" d="M15.3257 16.8906C15.8543 18.5909 15.2677 20.6442 15.4431 22.1684L15.032 51.0843L15.8543 51.8464L28.2986 51.9637L28.5335 54.3683C23.1329 54.6022 17.614 54.4849 12.0388 54.2509C11.6268 51.7869 11.9792 48.7376 11.7451 46.0387C10.7465 44.9245 8.63278 46.0983 7.92875 44.6897C7.69462 43.9268 7.8121 43.0473 8.22244 42.4612C9.22099 41.4057 11.3339 42.8134 12.0388 41.2883C11.6864 36.3031 12.3904 31.0824 11.8617 26.2724C10.6291 26.0385 8.9273 26.508 8.16453 25.4516C7.75336 24.8656 7.69545 23.867 8.04705 23.2223C8.98604 21.8733 11.4522 23.2802 12.3912 22.0494L12.4491 17.2989C13.2127 16.6558 14.3875 16.7732 15.3257 16.8906ZM51.3695 22.404C52.6618 23.5761 55.655 22.5205 55.3613 25.0425C55.1842 27.2123 52.4847 25.9806 51.3695 27.1544C51.1354 32.1991 51.3695 36.7139 51.1354 42.0521C51.8386 42.9316 53.4246 42.4034 54.4215 42.9903C54.9509 43.5185 55.3613 44.5748 54.7151 45.2196C53.9524 46.3925 52.6618 45.9238 51.3695 46.0404C50.7822 48.974 51.1933 51.9646 50.7234 54.7213C45.6165 54.6031 39.9817 54.8973 34.9914 54.4865L35.1081 52.0811H47.142C47.8477 51.9059 47.4945 51.1429 47.8477 50.7916L47.9652 22.1692L48.3176 17.4196C49.2566 16.8914 50.2552 17.1262 51.3695 17.2427V22.404ZM67.923 17.9462C67.5706 28.7968 67.6889 40.4096 67.2182 51.4356C67.1602 51.9646 67.7468 52.1985 68.1571 52.258H79.9578L80.3102 54.7791C75.3207 55.0726 69.9772 54.7213 64.9877 54.7213C64.225 54.2526 64.6949 53.1367 64.5791 52.6102L64.4608 46.3338C63.0519 46.2165 61.1143 46.276 60.4103 44.7509C60.3524 43.8714 60.5865 42.9332 61.4668 42.6398C62.6994 42.3463 64.0488 42.9911 64.637 41.7016V26.9205C63.1685 26.5097 60.7619 27.1544 60.3516 25.2185C60.3516 24.4564 60.5857 23.8108 61.0548 23.2239C62.1716 23.2818 63.1685 22.6966 64.225 22.9313C65.0473 21.055 64.3433 18.9439 65.1656 17.1253C66.2213 17.4196 67.8635 16.4219 67.923 17.9462ZM103.731 23.0495C104.846 23.6943 107.135 22.8743 107.546 24.5159C107.722 25.2789 107.37 25.9236 107.017 26.5105C106.02 27.2726 104.435 26.7444 103.318 27.3313C103.849 31.613 103.26 35.3079 103.437 39.5905C103.379 40.7047 102.968 42.3463 104.201 42.8737C105.14 42.5803 106.079 42.9332 106.843 43.4019C107.311 43.9888 107.311 44.927 107.135 45.6312C106.195 47.1555 103.555 45.5717 103.319 47.625L103.202 54.1939L102.38 55.0155H86.7665L86.9427 52.4936C91.0519 52.2597 95.3365 52.4936 99.4457 52.2597L99.9743 51.7307C100.093 40.5874 100.093 28.8564 100.385 17.537C101.5 17.4204 102.498 17.3031 103.555 17.6544L103.731 23.0495Z" fill="white"/>
  <path fill-rule="evenodd" clip-rule="evenodd" d="M25.1292 25.4541C24.9538 26.1575 24.014 26.5683 24.5418 27.5652C25.2475 30.264 25.5403 33.196 26.7143 35.7179L27.1842 35.4823C27.947 32.4909 28.9455 29.5581 29.4733 26.3915C29.298 25.7467 28.2407 26.5088 28.4169 25.6872C29.1217 25.5706 30.7656 25.3359 31.1751 25.8641C29.7083 26.3336 30.1774 28.1513 29.4725 29.2655C28.5923 32.1983 28.3573 35.4245 26.8318 38.1225C25.1283 34.6615 25.0704 30.3798 23.6615 26.7428C23.8957 25.3938 21.8407 26.7428 22.4876 25.3359L25.1292 25.4541ZM39.1006 25.5715C39.5697 26.3923 39.8039 27.5652 39.3943 28.5034C38.5712 28.0918 39.8039 25.9815 38.3379 26.3923L37.9267 26.2162L34.8748 26.2741C34.5215 27.7405 34.6398 29.6168 34.7573 30.9666C35.6376 31.4353 36.6353 30.8501 37.5155 31.0253C37.633 31.3775 38.1029 31.2593 37.9267 31.6701C37.1052 32.7256 34.6986 30.908 34.7573 32.7256C34.9327 34.1325 34.3453 35.3649 34.8748 36.7726C36.225 37.3587 37.8688 36.89 39.3356 36.7726C39.3356 36.0684 39.219 35.3649 39.6293 34.8368C40.5095 35.3649 39.688 36.5371 39.9222 37.4769L39.6293 37.8282C37.3393 37.7687 35.3447 37.8861 33.0556 37.7108C32.7023 37.5347 32.8198 37.2421 32.996 36.9487C33.7008 37.0661 33.9945 36.4792 34.1128 35.8931L34.0533 26.3915C33.7017 25.8046 32.3507 26.3336 33.0564 25.3359C34.8152 25.7475 37.1052 25.512 39.1006 25.5715ZM83.655 27.7991C84.3615 28.9721 83.7733 30.3798 83.3621 31.4957C82.9501 32.3156 80.8968 32.2578 82.0111 33.6068C82.8914 34.8971 82.6556 37.4785 84.8289 37.7125C85.0631 37.4785 85.2988 37.1256 85.7092 37.3016C86.0616 38.0059 84.9464 38.1811 84.5344 38.4167C81.1301 37.6546 82.8914 32.023 78.4877 32.6099C78.0194 32.4347 77.7249 32.962 77.6653 33.2563V36.9503C77.959 37.5951 79.4862 36.9503 78.8997 37.8885L78.7218 38.1241C77.8432 37.8885 76.1398 38.6515 75.7294 37.4794L76.9026 36.9512C77.3145 33.5481 77.0788 30.0301 77.1383 26.7452C76.8446 26.2766 76.1993 26.4526 75.8461 26.3939V25.7492C78.6647 26.2741 82.0715 24.8672 83.655 27.7991ZM91.5201 25.9815C91.9321 26.861 90.6995 26.627 90.2304 26.8031L90.1121 36.9495C90.2883 37.4182 91.8138 37.0669 91.0511 37.8877C90.2304 38.4159 89.2897 37.8298 88.3508 38.0051C88.1745 37.8298 87.8221 37.5943 88.1166 37.3603C88.3508 37.0082 88.8198 37.243 89.1731 37.1851C89.6413 33.5473 89.4659 30.3227 89.4659 26.7444C89.1135 26.3352 87.9992 27.0974 88.1166 26.0997C89.1144 25.7475 90.582 25.8649 91.5201 25.9815Z" fill="black"/>
  <path fill-rule="evenodd" clip-rule="evenodd" d="M82.9501 27.976C83.0684 29.0316 83.3621 30.1458 82.5977 31.0253C81.3667 32.0809 79.4291 31.7875 77.844 31.6701C77.7257 30.0871 77.6082 28.0918 77.9607 26.7428C79.5458 26.9783 82.1294 25.9815 82.9501 27.976ZM29.8258 47.5068C29.2384 48.621 28.9463 49.9113 28.2994 50.909L17.1457 50.6743C16.9695 49.56 18.3792 48.7971 19.0245 47.8581C19.9635 47.2712 21.1962 47.9176 22.3122 47.9176C24.7197 47.6241 27.4779 46.2156 29.8258 47.5068ZM42.682 47.3886H43.3273C44.3242 48.5615 45.3807 49.5592 45.8514 51.0247C41.9772 51.1421 38.3958 50.7908 34.7565 50.9082C35.2256 49.3823 32.9943 48.5036 34.2287 47.2125C37.3393 45.6883 39.688 48.7384 42.682 47.3886ZM80.9547 48.1515C81.0142 49.3244 80.3681 50.2048 80.3102 51.3182L69.3319 51.2025V50.7908L72.1497 48.035C75.2604 48.8558 78.2544 45.9238 80.9547 48.1515ZM95.6294 48.2689C96.7462 49.2071 97.8027 50.0874 98.3892 51.3182C94.5141 51.729 90.8161 51.3777 86.8244 51.3182C86.5307 50.1461 85.7092 49.1492 85.7679 47.8581C89.2906 45.8643 92.1084 49.3831 95.6294 48.2689ZM33.5825 49.4426C34.3453 51.6125 34.5803 54.2518 32.8785 55.9521C31.8221 56.1876 30.5877 56.1281 29.8845 55.2478C29.0043 53.1367 29.2384 50.0866 30.6481 48.3863C31.7046 47.6241 33.1126 48.2689 33.5825 49.4426ZM85.2418 49.5005C85.945 51.3182 86.2966 53.8409 85.3584 55.6586C84.594 56.1281 83.5971 56.4803 82.5985 56.1876C81.7183 56.0108 81.3071 55.1899 81.1317 54.3691C81.0738 52.258 80.7793 49.5005 82.8351 48.3863C83.7725 48.0928 85.0051 48.4449 85.2418 49.5005Z" fill="white"/>
  <path fill-rule="evenodd" clip-rule="evenodd" d="M46.7317 72.1401C49.5495 72.1987 53.1888 70.4976 55.655 72.3169C56.4765 72.8451 56.8876 74.0759 57.8845 74.252C59.2943 72.1996 61.4659 71.3779 63.9321 71.4953C67.219 72.1996 71.152 73.256 73.9698 71.144C75.8477 71.9061 77.0217 73.4891 78.8417 73.8999C80.134 73.7825 81.6595 73.6073 82.7168 74.4289C82.7747 75.7184 83.0105 76.7739 82.951 78.2403C84.0678 79.0032 85.7108 78.4164 86.7673 79.4141C87.2476 80.1296 87.5307 80.959 87.588 81.8186C87.1776 82.8147 86.357 83.3437 85.3584 83.8124C84.7123 83.9884 83.2446 83.4594 82.951 84.3397L82.8343 99.883C83.363 100.762 84.8877 99.883 85.4759 100.587C86.5307 100.469 87.1189 101.585 87.588 102.17C87.4713 103.05 87.8817 104.106 87.2951 104.752C86.5307 106.746 83.9487 105.162 82.8335 106.511V112.67C82.4231 113.607 81.1301 113.842 80.1919 113.724L61.1722 113.606C60.1737 114.429 60.057 115.954 58.6481 116.54C57.6504 116.892 56.7693 116.422 56.0066 116.011C55.1263 115.425 55.1263 114.134 54.4206 113.606C47.4357 113.549 40.9778 113.782 34.2287 113.373C33.5238 112.962 32.6427 113.842 32.1157 112.962C31.88 111.907 31.2926 110.5 31.822 109.56C31.7625 109.208 31.4109 108.681 31.822 108.446C31.4688 107.507 32.2911 106.217 31.2934 105.572C29.9432 105.923 28.7106 105.514 27.712 104.751C27.4787 103.518 26.4793 101.935 27.8891 100.939C28.7685 99.883 30.2948 100.352 31.4688 100.059C32.1745 99.8251 31.3513 99.0622 31.822 98.8274V83.7537C31.1172 82.9916 30.5885 83.8132 29.8258 83.4024C28.828 83.2263 27.947 82.7576 27.5962 81.7013C27.3025 80.7631 27.6541 80.1175 27.8891 79.2967C28.886 78.0659 30.6481 78.5924 31.9387 78.0056C32.1745 76.4226 31.2347 74.4867 32.7619 73.6073C35.7559 74.4289 38.045 72.3765 40.1579 71.0845C42.3883 71.3779 44.3242 72.5509 46.7317 72.1401Z" fill="black"/>
  <path fill-rule="evenodd" clip-rule="evenodd" d="M71.856 72.9617C72.3847 72.8443 72.8529 72.3756 73.5578 72.5509L73.7356 72.9617L73.8523 94.1944C73.1474 97.1842 73.9102 100.469 73.5586 103.871C69.2153 106.863 65.0481 101.935 60.6469 104.223C59.8246 104.809 59.0601 105.396 58.122 105.69L58.0037 99.3548C57.8283 99.2374 57.7695 98.8861 57.4758 99.0018C56.6535 101.173 57.7687 103.578 56.9472 105.454C54.716 103.226 50.6655 103.108 47.8485 104.281C45.7348 104.692 42.7995 105.454 40.9207 104.105L40.9795 76.8913L41.2144 72.4335C42.2121 71.8466 42.682 73.0791 43.6219 72.9617C48.3755 74.6033 54.1286 69.3834 57.0647 74.9554C57.3575 76.3623 56.8893 78.0651 57.4758 79.2959C58.649 78.5916 57.8275 76.7152 58.2386 75.4844C59.2959 73.6651 60.5865 72.493 62.6423 72.1987C65.6934 72.7856 68.6279 73.3725 71.856 72.9617ZM39.9222 103.578C39.8642 105.279 38.2783 106.921 37.1052 107.918H36.694L36.9877 74.1355C37.9846 73.4891 38.8657 72.6087 40.0396 72.3169L39.9222 103.578Z" fill="white"/>
  <path fill-rule="evenodd" clip-rule="evenodd" d="M57.475 82.9907C58.9427 86.5682 59.6467 90.4979 60.8785 94.1944C61.2905 94.5457 61.935 94.2522 62.2295 94.8978C61.5247 95.6599 60.292 94.7796 59.4713 95.2508C59.2951 95.0739 59.0593 94.7804 59.2951 94.6044C60.4682 94.4878 59.9396 93.4323 59.8816 92.6685C59.5292 90.9103 56.9464 91.7906 55.5962 91.5542C54.3635 91.3203 54.8914 92.7859 54.3056 93.3141C54.0119 94.1944 54.8334 94.1349 55.1271 94.7217L54.8334 95.1326C54.0119 94.6035 52.2506 95.836 52.3093 94.4878C52.9555 94.1952 53.6595 94.3109 53.777 93.4323C54.8334 89.9721 55.5383 86.3343 56.9472 82.9916L57.475 82.9907Z" fill="black"/>
  <path fill-rule="evenodd" clip-rule="evenodd" d="M77.9607 74.4281C78.1369 85.8061 77.667 97.3602 77.9607 108.445L77.3162 108.327L74.3818 104.515C74.85 93.8406 74.3222 83.8694 74.6746 72.7261C75.9065 72.9617 76.9042 73.8999 77.9607 74.4281ZM35.9313 74.3107C36.0487 85.3953 35.6963 98.2397 35.813 109.267L36.4582 109.912H54.5985C55.0676 110.675 54.7151 111.671 54.5389 112.435L54.1269 112.727C47.5532 112.727 41.6827 112.375 35.5193 112.199C35.1073 112.551 34.874 112.199 34.4628 112.199C33.8175 112.493 33.1714 112.257 32.6427 112.024L32.4673 105.161C31.0593 104.165 28.4748 105.629 27.8891 103.342C27.8891 102.522 27.7708 101.701 28.6518 101.231L32.1157 100.939L32.5253 100.294C32.4673 93.9596 32.7015 88.9744 32.349 82.875C31.6442 82.7568 30.6473 82.6973 29.8249 82.5816C29.1209 82.5229 28.1811 82.3468 28.1224 81.526C28.0644 80.7639 28.1803 80.0605 28.5335 79.5314C29.59 79.2975 30.8227 78.8867 31.8212 79.1793C33.4055 78.3593 32.2903 76.3053 32.7602 74.781C33.5826 73.9577 34.7573 74.4868 35.9313 74.3107Z" fill="white"/>
  <path fill-rule="evenodd" clip-rule="evenodd" d="M82.0111 74.7794C82.716 76.3623 81.2484 78.652 83.2438 79.5885C84.5352 79.6472 86.2957 79.2959 86.7665 80.7622C87.0602 81.8178 86.2966 82.5799 85.4751 82.8742C84.3599 83.3429 82.4231 82.2286 82.0103 83.8124L82.1865 84.1645C82.0699 89.6779 82.0699 94.9565 82.0699 100.41C82.4223 102.053 84.4178 100.704 85.2401 101.584C85.7671 101.231 86.237 101.701 86.6473 101.993C87.176 102.64 86.8235 103.518 86.6473 104.222C85.4742 105.689 83.1263 104.28 82.0103 105.572L81.892 112.317L81.2475 112.726H61.1706C60.5261 112.141 60.8181 111.143 60.7602 110.323C61.4064 109.619 62.4637 110.323 63.166 110.088H77.959C78.371 109.853 78.8997 109.501 78.8393 108.974V74.7794C79.8378 74.8372 80.6006 74.5446 81.6571 74.7794H82.0111Z" fill="white"/>
  <path fill-rule="evenodd" clip-rule="evenodd" d="M69.0978 83.1081C69.801 83.2255 69.5081 84.2224 69.7422 84.5745C69.6843 85.1019 69.8002 85.6879 69.6256 86.1566C68.8033 85.6879 68.7454 84.3389 67.7468 83.9298C66.572 83.6942 65.1052 83.752 64.5782 84.8679C64.3425 85.5714 63.99 86.4509 64.5782 87.0964C66.1617 88.9141 69.0978 88.5033 70.1542 91.0839C70.4479 92.3155 70.3305 93.5463 69.5081 94.4862C68.6858 95.8343 66.8666 95.483 65.6347 95.2491C64.9869 94.4862 64.2837 96.2452 64.1075 94.8962C63.8717 93.958 63.7551 92.7842 63.8138 91.8469C64.6941 91.9642 64.2837 93.1959 64.6361 93.7232C65.4568 94.8391 66.8078 94.7788 67.923 94.6027C68.6279 94.4266 69.5677 93.8406 69.6264 93.0198C69.9772 92.2577 69.3923 91.6113 69.3327 90.9087C67.5135 88.6794 62.4653 88.7372 63.8146 84.8671C64.4012 83.8694 65.1061 83.2247 66.2221 82.9899C67.3944 82.5212 68.335 84.5753 69.0978 83.1081ZM51.8982 83.2834C51.8386 84.1637 52.0736 85.6301 51.2512 86.1574L51.1346 84.0463C49.9606 84.1645 48.728 83.2834 47.9644 84.3389C47.8469 87.5064 47.7294 91.0839 48.081 94.0753C48.3168 94.4862 49.4907 94.0753 49.1375 95.0135L46.0856 95.1317C45.3807 93.8406 47.2595 94.7788 47.2595 93.7232C47.3182 90.4392 47.4944 87.1551 47.142 84.0463C46.2618 84.0463 44.8529 83.5181 44.3838 84.4571C44.2084 85.044 44.2663 85.6879 43.8551 86.1574C43.621 85.2192 43.7385 83.6363 44.6179 83.1089C47.0849 83.6363 49.1979 82.9321 51.8982 83.2834Z" fill="black"/>
  <path fill-rule="evenodd" clip-rule="evenodd" d="M58.1203 86.8617C58.2378 88.2107 59.1768 89.2084 58.9427 90.6731H55.4779C55.7137 88.6794 56.1249 86.3922 57.1813 84.5745C57.6504 85.1019 57.9441 86.0409 58.1203 86.8617ZM56.4177 106.863C55.8312 111.026 51.487 108.094 48.9034 108.975L37.7497 108.74C38.2775 107.39 39.5697 106.628 40.2746 105.337C42.2105 105.866 44.9712 106.217 47.0245 105.455C49.7852 104.633 54.8326 103.518 56.4177 106.863ZM73.4411 105.336C74.7905 106.392 76.0231 107.565 76.728 109.033C71.564 109.384 65.6934 108.914 60.4095 109.033C60.057 108.27 59.1172 107.39 58.8244 106.51C63.4614 102.346 68.3929 107.507 73.4411 105.336Z" fill="white"/>
  <path fill-rule="evenodd" clip-rule="evenodd" d="M59.353 108.739C59.9975 110.733 60.5857 113.255 59.2951 115.073C58.414 115.717 57.298 115.542 56.3011 115.308C54.8334 113.842 55.5962 111.554 55.6558 109.677C55.8899 108.914 56.5352 108.27 57.1822 107.8C58.1203 107.625 59.0006 107.976 59.353 108.739Z" fill="white"/>
</svg>