<svg xmlns="http://www.w3.org/2000/svg" width="77" height="17" viewBox="0 0 77 17" fill="none">
  <path d="M5.4119 2.46927C5.4119 4.27374 5.39542 5.82495 5.36247 7.12291H7.88308L8.1302 5.48464C8.9704 5.48464 9.78589 5.6825 10.5767 6.07821V10.8268L8.94569 10.898C8.5503 10.3282 8.31966 9.82961 8.25376 9.40223H5.33776C5.30481 11.6182 5.28834 13.2882 5.28834 14.412H9.51406L10.0577 12.3464C11.0791 12.3464 11.8535 12.3939 12.3806 12.4888C12.6278 13.3911 12.7513 14.2142 12.7513 14.9581C12.7513 15.6862 12.7266 16.2719 12.6772 16.7151H0.420101L0.197695 15.4092C1.26854 15.0135 1.96047 14.784 2.27349 14.7207C2.25702 13.7868 2.24054 12.473 2.22407 10.7793C2.15817 6.98045 2.10051 4.10754 2.05108 2.16061L0 1.5433L0.197695 0.0949722H12.3312C12.3806 0.522347 12.4053 1.06052 12.4053 1.7095C12.4053 2.34264 12.2818 3.22905 12.0347 4.36871C11.524 4.527 10.7497 4.60614 9.71176 4.60614L9.14338 2.46927H5.4119Z" fill="#A81D28"/>
  <path d="M22.9506 4.36871C24.598 4.36871 25.7924 4.75652 26.5338 5.53212C27.2751 6.30773 27.6458 7.39199 27.6458 8.78492C27.6458 10.1778 27.5634 12.0615 27.3987 14.4358L29.3509 14.6494C29.3509 15.2984 29.1615 15.987 28.7825 16.7151H22.6293L22.4069 15.4092C23.1812 15.1085 23.8978 14.871 24.5568 14.6969C24.5074 12.8766 24.458 11.3492 24.4086 10.1145C24.3591 8.86406 24.2356 8.01723 24.0379 7.57402C23.8402 7.13082 23.4036 6.90922 22.7281 6.90922C21.7067 6.90922 20.7924 7.08333 19.9851 7.43156C19.9687 8.1122 19.9192 9.22812 19.8369 10.7793C19.771 12.3147 19.7298 13.5335 19.7133 14.4358L21.6408 14.6494C21.6408 15.2984 21.4514 15.987 21.0725 16.7151H14.9192L14.6968 15.4092C15.5205 15.1085 16.2619 14.871 16.9209 14.6969C16.9044 13.7472 16.8467 12.4334 16.7479 10.7556C16.6655 9.07775 16.6161 7.8352 16.5996 7.02793C15.99 6.96462 15.3393 6.8459 14.6474 6.67179L14.7709 4.96229C15.9241 4.66155 17.2256 4.51117 18.6754 4.51117C18.8566 4.62197 19.1037 4.96229 19.4168 5.53212C19.9769 5.26304 20.6606 5.00186 21.4678 4.7486C22.2751 4.49534 22.7693 4.36871 22.9506 4.36871Z" fill="#A81D28"/>
  <path d="M39.0432 5.38966L39.0679 6.1257C39.0679 7.36034 38.969 8.1676 38.7714 8.54749C38.2277 8.73743 37.4699 8.8324 36.4979 8.8324L35.7071 6.43436C35.4929 6.35521 35.1964 6.31564 34.8175 6.31564C34.4385 6.31564 34.1255 6.42644 33.8784 6.64805C33.6478 6.86965 33.5324 7.13082 33.5324 7.43156C33.5324 7.73231 33.656 8.00931 33.9031 8.26257C34.1502 8.5 34.4056 8.68994 34.6692 8.8324C34.9328 8.97486 35.3117 9.1648 35.8059 9.40223C36.3166 9.62384 36.6956 9.79795 36.9427 9.92458C37.2063 10.0512 37.5358 10.2412 37.9311 10.4944C38.343 10.7477 38.656 10.9851 38.8702 11.2067C39.3974 11.8082 39.661 12.4651 39.661 13.1774C39.661 14.3962 39.175 15.338 38.203 16.0028C37.2475 16.6676 36.0695 17 34.6692 17C33.9278 17 33.1123 16.8734 32.2227 16.6201C31.3496 16.3669 30.6082 16.0265 29.9986 15.5992C29.9986 14.4595 30.114 13.399 30.3446 12.4176C31.0036 12.3385 31.539 12.2989 31.9509 12.2989C32.3627 12.2989 32.6428 12.3068 32.7911 12.3226L33.0876 14.6257C33.4995 14.7682 33.9937 14.8394 34.5703 14.8394C35.1469 14.8394 35.6 14.7286 35.9295 14.507C36.2755 14.2854 36.4484 13.9767 36.4484 13.581C36.4484 13.1695 36.259 12.8291 35.8801 12.5601C35.5011 12.291 34.9822 12.014 34.3232 11.7291C33.6642 11.4283 33.1535 11.183 32.7911 10.993C32.4286 10.7872 32.0415 10.5261 31.6296 10.2095C30.7894 9.59218 30.3693 8.8324 30.3693 7.93017C30.3693 6.80633 30.7729 5.93575 31.5802 5.31844C32.4039 4.68529 33.5077 4.36871 34.8916 4.36871C36.2755 4.36871 37.6593 4.70903 39.0432 5.38966Z" fill="#A81D28"/>
  <path d="M46.2627 4.55866C46.5757 4.55866 46.7734 4.56657 46.8558 4.5824C46.8558 5.35801 46.7158 6.07821 46.4357 6.74302C46.3698 10.162 46.3286 12.7263 46.3121 14.4358L48.2397 14.6494C48.2397 15.2984 48.0502 15.987 47.6713 16.7151H41.518L41.2956 15.4092C42.3171 15.0452 43.0584 14.8077 43.5197 14.6969L43.2479 7.00419C42.2759 6.90922 41.5592 6.7905 41.0979 6.64805C41.0979 6.25233 41.1556 5.6825 41.2709 4.93855C42.2429 4.68529 43.9068 4.55866 46.2627 4.55866ZM46.2627 0.0712295C46.411 0.78352 46.4851 1.32961 46.4851 1.7095C46.4851 2.07356 46.4522 2.4851 46.3863 2.94413C45.7273 3.08659 45.1671 3.15782 44.7059 3.15782C44.261 3.15782 43.7174 3.13408 43.0749 3.08659C42.9266 2.3743 42.8525 1.83613 42.8525 1.47207C42.8525 1.09218 42.8854 0.672719 42.9513 0.213687C43.6103 0.0712291 44.1622 0 44.607 0C45.0683 0 45.6202 0.0237432 46.2627 0.0712295Z" fill="#A81D28"/>
  <path d="M56.9535 4.36871C58.6009 4.36871 59.7953 4.75652 60.5367 5.53212C61.278 6.30773 61.6487 7.39199 61.6487 8.78492C61.6487 10.1778 61.5664 12.0615 61.4016 14.4358L63.3538 14.6494C63.3538 15.2984 63.1644 15.987 62.7855 16.7151H56.6322L56.4098 15.4092C57.1841 15.1085 57.9008 14.871 58.5597 14.6969C58.5103 12.8766 58.4609 11.3492 58.4115 10.1145C58.3621 8.86406 58.2385 8.01723 58.0408 7.57402C57.8431 7.13082 57.4065 6.90922 56.7311 6.90922C55.7096 6.90922 54.7953 7.08333 53.9881 7.43156C53.9716 8.1122 53.9222 9.22812 53.8398 10.7793C53.7739 12.3147 53.7327 13.5335 53.7162 14.4358L55.6438 14.6494C55.6438 15.2984 55.4543 15.987 55.0754 16.7151H48.9221L48.6997 15.4092C49.5234 15.1085 50.2648 14.871 50.9238 14.6969C50.9073 13.7472 50.8497 12.4334 50.7508 10.7556C50.6684 9.07775 50.619 7.8352 50.6025 7.02793C49.993 6.96462 49.3422 6.8459 48.6503 6.67179L48.7739 4.96229C49.9271 4.66155 51.2286 4.51117 52.6783 4.51117C52.8596 4.62197 53.1067 4.96229 53.4197 5.53212C53.9798 5.26304 54.6635 5.00186 55.4708 4.7486C56.278 4.49534 56.7723 4.36871 56.9535 4.36871Z" fill="#A81D28"/>
  <path d="M68.598 17C67.1976 17 66.1103 16.723 65.336 16.169C64.5782 15.615 64.1993 14.6811 64.1993 13.3673C64.1993 12.1169 64.6523 11.0959 65.5584 10.3045C66.0856 9.84544 66.8187 9.57635 67.7578 9.49721C68.6968 9.41806 69.9901 9.37849 71.6375 9.37849V8.9986C71.6375 8.03305 71.4728 7.32868 71.1433 6.88547C70.8303 6.42644 70.2701 6.19693 69.4629 6.19693C69.051 6.19693 68.6803 6.27607 68.3509 6.43436L67.7578 8.5L65.9291 8.45251C65.5172 7.85102 65.2948 6.89339 65.2619 5.57961C65.5914 5.42132 66.3657 5.18389 67.5848 4.86732C68.8039 4.53492 69.5864 4.36871 69.9324 4.36871C71.7117 4.36871 73.0049 4.72486 73.8122 5.43715C74.6194 6.13361 75.0231 7.24953 75.0231 8.78492C75.0231 10.3045 74.9489 12.3147 74.8006 14.8156C75.7397 14.8948 76.4646 15.0293 76.9753 15.2193C76.9918 15.4092 77 15.6387 77 15.9078L76.9753 16.4302C75.7891 16.8101 74.5947 17 73.3921 17C73.0791 17 72.8484 16.9921 72.7001 16.9763C72.453 16.5014 72.3048 15.9316 72.2553 15.2668H72.1318C71.8188 15.5517 71.2669 15.9157 70.4761 16.3589C69.7018 16.7863 69.0757 17 68.598 17ZM67.3624 13.5098C67.3624 14.0321 67.5271 14.4199 67.8566 14.6732C68.2026 14.9106 68.5897 15.0293 69.0181 15.0293C69.4464 15.0293 69.9571 14.8473 70.5502 14.4832C71.1433 14.1034 71.6211 13.763 71.9835 13.4623L71.8599 11.2779C70.5584 11.3412 69.5782 11.46 68.9192 11.6341C67.8813 11.8399 67.3624 12.4651 67.3624 13.5098Z" fill="#A81D28"/>
</svg>