<svg xmlns="http://www.w3.org/2000/svg" width="61" height="10" viewBox="0 0 61 10" fill="none">
  <path d="M5.34735 0L6.60969 3.81966H10.6947L7.38986 6.18034L8.6522 10L5.34735 7.63932L2.04251 10L3.30484 6.18034L0 3.81966H4.08501L5.34735 0Z" fill="black"/>
  <path d="M17.9237 0L19.186 3.81966H23.271L19.9662 6.18034L21.2285 10L17.9237 7.63932L14.6188 10L15.8812 6.18034L12.5763 3.81966H16.6613L17.9237 0Z" fill="black"/>
  <path d="M30.5 0L31.7623 3.81966H35.8474L32.5425 6.18034L33.8049 10L30.5 7.63932L27.1952 10L28.4575 6.18034L25.1527 3.81966H29.2377L30.5 0Z" fill="black"/>
  <path d="M43.0763 0L44.3387 3.81966H48.4237L45.1188 6.18034L46.3812 10L43.0763 7.63932L39.7715 10L41.0338 6.18034L37.729 3.81966H41.814L43.0763 0Z" fill="black"/>
  <path d="M55.6527 0L56.915 3.81966H61L57.6952 6.18034L58.9575 10L55.6527 7.63932L52.3478 10L53.6101 6.18034L50.3053 3.81966H54.3903L55.6527 0Z" fill="black"/>
</svg>