<svg xmlns="http://www.w3.org/2000/svg" width="71" height="13" viewBox="0 0 71 13" fill="none">
  <path d="M6.22397 0.5L7.69325 5.08359H12.4479L8.60131 7.91641L10.0706 12.5L6.22397 9.66718L2.37734 12.5L3.84662 7.91641L0 5.08359H4.75469L6.22397 0.5Z" fill="white"/>
  <path d="M20.862 0.5L22.3313 5.08359H27.086L23.2393 7.91641L24.7086 12.5L20.862 9.66718L17.0154 12.5L18.4846 7.91641L14.638 5.08359H19.3927L20.862 0.5Z" fill="white"/>
  <path d="M35.5 0.5L36.9693 5.08359H41.724L37.8774 7.91641L39.3466 12.5L35.5 9.66718L31.6534 12.5L33.1227 7.91641L29.276 5.08359H34.0307L35.5 0.5Z" fill="white"/>
  <path d="M50.138 0.5L51.6073 5.08359H56.362L52.5154 7.91641L53.9846 12.5L50.138 9.66718L46.2914 12.5L47.7607 7.91641L43.9141 5.08359H48.6687L50.138 0.5Z" fill="white"/>
  <path d="M64.776 0.5L66.2453 5.08359H71L67.1534 7.91641L68.6227 12.5L64.776 9.66718L60.9294 12.5L62.3987 7.91641L58.5521 5.08359H63.3068L64.776 0.5Z" fill="white"/>
</svg>