<svg width="19" height="18" viewBox="0 0 19 18" fill="none" xmlns="http://www.w3.org/2000/svg">
<path d="M11.4177 3.34175L10.5019 2.56138C9.96358 2.10259 9.17125 2.10259 8.63289 2.56138L7.71705 3.34178C7.48635 3.53838 7.19948 3.65714 6.89733 3.68125L5.69895 3.77683C4.99385 3.8331 4.43304 4.39302 4.37678 5.09812L4.28083 6.29746C4.25672 6.59962 4.13874 6.88634 3.94213 7.11704L3.1614 8.03294C2.70261 8.5713 2.70282 9.36298 3.16162 9.90135L3.94165 10.8172C4.13825 11.0479 4.25738 11.3347 4.28149 11.6368L4.37744 12.8362C4.4337 13.5413 4.99289 14.1012 5.69799 14.1574L6.8977 14.253C7.19985 14.2771 7.48658 14.3959 7.71728 14.5925L8.63281 15.3729C9.17118 15.8317 9.96358 15.8316 10.5019 15.3728L11.4175 14.5924C11.6482 14.3958 11.9349 14.2773 12.2371 14.2532L13.4368 14.1575C14.1419 14.1012 14.7011 13.5411 14.7573 12.836L14.8533 11.6367C14.8774 11.3346 14.9965 11.0476 15.1931 10.8169L15.9731 9.9013C16.4319 9.36294 16.4319 8.57102 15.9731 8.03265L15.193 7.11718C14.9964 6.88648 14.8772 6.59961 14.853 6.29746L14.7577 5.09798C14.7014 4.39288 14.1414 3.83317 13.4363 3.77691L12.237 3.68133C11.9348 3.65722 11.6484 3.53836 11.4177 3.34175Z" fill="#A81D28"/>
<path d="M7.64349 8.77362L9.13757 10.3043L11.5565 7.82605" stroke="white" stroke-width="1.2" stroke-linecap="round"/>
</svg>
